# xmcd CD database file
#
# Track frame offsets:
#	150
#	22615
#	43044
#	61575
#	86581
#	107365
#	133891
#	155288
#	176271
#	198032
#
# Disc length: 2916 seconds
#
# Revision: 0
# Processed by: cddbd v1.5.2PL0 Copyright (c) Steve Scherf et al.
# Submitted via: CDex 1.70beta2
#
DISCID=680b620a
DTITLE=Shilts - Jigsaw Life
DYEAR=2009
DGENRE=Jazz
TTITLE0=Piece By Piece
TTITLE1=Back On The Hudson
TTITLE2=Smile For Me
TTITLE3=Broken Silence
TTITLE4=Too Close To The Ledge
TTITLE5=Listen Up
TTITLE6=Outside The Box
TTITLE7=A Promise Is A Promise
TTITLE8=Ain't It Marvelous
TTITLE9=Time Gentlemen Please
EXTD=YEAR: 2009
EXTT0=
EXTT1=
EXTT2=
EXTT3=
EXTT4=
EXTT5=
EXTT6=
EXTT7=
EXTT8=
EXTT9=
PLAYORDER=
